<svg xmlns="http://www.w3.org/2000/svg" viewBox="0 0 1440 900" role="img" aria-label="Testably — Coverage Matrix with AI insights, showing OS x browser test coverage and AI-detected gaps">
  <defs>
    <linearGradient id="runGrad" x1="0" y1="0" x2="1" y2="1">
      <stop offset="0" stop-color="#4F46E5"/>
      <stop offset="1" stop-color="#312E81"/>
    </linearGradient>
    <linearGradient id="aiHeadGrad" x1="0" y1="0" x2="1" y2="0">
      <stop offset="0" stop-color="#EDE9FE" stop-opacity="0.7"/>
      <stop offset="1" stop-color="#EEF2FF" stop-opacity="0.3"/>
    </linearGradient>
    <radialGradient id="indigoGlow" cx="0.5" cy="0.5" r="0.7">
      <stop offset="0" stop-color="#6366F1" stop-opacity="0.28"/>
      <stop offset="1" stop-color="#6366F1" stop-opacity="0"/>
    </radialGradient>
    <filter id="cardShadow" x="-20%" y="-20%" width="140%" height="140%">
      <feGaussianBlur stdDeviation="16" in="SourceAlpha"/>
      <feOffset dy="16"/>
      <feComponentTransfer><feFuncA type="linear" slope="0.22"/></feComponentTransfer>
      <feMerge><feMergeNode/><feMergeNode in="SourceGraphic"/></feMerge>
    </filter>
    <filter id="softShadow" x="-5%" y="-5%" width="110%" height="110%">
      <feGaussianBlur stdDeviation="6" in="SourceAlpha"/>
      <feOffset dy="3"/>
      <feComponentTransfer><feFuncA type="linear" slope="0.08"/></feComponentTransfer>
      <feMerge><feMergeNode/><feMergeNode in="SourceGraphic"/></feMerge>
    </filter>
    <style>
      .s  { font-family: -apple-system, BlinkMacSystemFont, "SF Pro Text", "Segoe UI", Roboto, Helvetica, Arial, sans-serif; }
      .m  { font-family: ui-monospace, "SF Mono", "JetBrains Mono", Menlo, Consolas, monospace; }
      .logo { font-family: "Pacifico", cursive, -apple-system, sans-serif; }
    </style>
  </defs>

  <!-- Canvas (light) -->
  <rect width="1440" height="900" fill="#F9FAFB"/>

  <!-- ============================================================
       APP HEADER (ProjectHeader) — y: 0..56
       ============================================================ -->
  <g class="s">
    <rect width="1440" height="56" fill="#FFFFFF"/>
    <rect y="55" width="1440" height="1" fill="#E5E7EB"/>

    <!-- Logo mark -->
    <rect x="20" y="12" width="32" height="32" rx="8" fill="#6366F1"/>
    <text x="36" y="34" text-anchor="middle" font-size="15" font-weight="800" fill="#FFFFFF">T</text>
    <text x="62" y="35" class="logo" font-size="20" fill="#0F172A">Testably</text>

    <!-- Workspace switcher -->
    <rect x="190" y="14" width="210" height="28" rx="6" fill="#F3F4F6"/>
    <circle cx="204" cy="28" r="7" fill="#6366F1"/>
    <text x="204" y="31" text-anchor="middle" font-size="8" font-weight="800" fill="#FFFFFF">A</text>
    <text x="218" y="32" font-size="13" font-weight="600" fill="#111827">Acme Checkout v2</text>
    <text x="388" y="33" font-size="12" fill="#6B7280">▾</text>

    <!-- Search -->
    <rect x="540" y="14" width="360" height="28" rx="6" fill="#F3F4F6" stroke="#E5E7EB"/>
    <text x="558" y="31" font-size="12" fill="#9CA3AF">Search everything</text>
    <rect x="850" y="18" width="40" height="20" rx="4" fill="#E5E7EB"/>
    <text x="870" y="32" text-anchor="middle" font-size="10" font-weight="700" fill="#6B7280">⌘K</text>

    <!-- Right side -->
    <circle cx="1340" cy="28" r="12" fill="#F3F4F6"/>
    <text x="1340" y="32" text-anchor="middle" font-size="11" fill="#6B7280">🔔</text>
    <circle cx="1380" cy="28" r="14" fill="#8B5CF6"/>
    <text x="1380" y="32" text-anchor="middle" font-size="11" font-weight="800" fill="#FFFFFF">KM</text>
  </g>

  <!-- ============================================================
       PROJECT / PLAN CONTEXT — y: 56..196
       ============================================================ -->
  <g class="s">
    <!-- Breadcrumb -->
    <text x="20" y="84" font-size="12" fill="#6B7280">
      Projects
      <tspan fill="#D1D5DB"> › </tspan>
      <tspan fill="#374151">Acme Checkout v2</tspan>
      <tspan fill="#D1D5DB"> › </tspan>
      Milestones
      <tspan fill="#D1D5DB"> › </tspan>
      <tspan fill="#374151">Q2 Release</tspan>
      <tspan fill="#D1D5DB"> › </tspan>
      Plans
    </text>

    <!-- Plan H1 + badges -->
    <text x="20" y="122" font-size="26" font-weight="800" fill="#0F172A" letter-spacing="-0.5">Sprint 42 Regression</text>

    <!-- Active badge -->
    <rect x="336" y="102" width="62" height="22" rx="11" fill="#FEF3C7" stroke="#FCD34D"/>
    <circle cx="349" cy="113" r="3" fill="#D97706"/>
    <text x="357" y="117" font-size="11" font-weight="700" fill="#92400E">Active</text>

    <!-- P1 priority -->
    <rect x="408" y="102" width="32" height="22" rx="6" fill="#FEE2E2" stroke="#FCA5A5"/>
    <text x="424" y="117" text-anchor="middle" font-size="11" font-weight="700" fill="#B91C1C">P1</text>

    <!-- Owner -->
    <text x="1260" y="117" font-size="12" fill="#6B7280">Owner</text>
    <circle cx="1310" cy="113" r="11" fill="#8B5CF6"/>
    <text x="1310" y="117" text-anchor="middle" font-size="10" font-weight="800" fill="#FFFFFF">KM</text>
    <text x="1326" y="117" font-size="12" font-weight="600" fill="#111827">Kai M.</text>

    <!-- Stats row -->
    <g transform="translate(20,146)">
      <circle cx="5" cy="8" r="4" fill="#16A34A"/>
      <text x="14" y="12" font-size="12" fill="#374151">Passed <tspan font-weight="700" fill="#111827">142</tspan></text>

      <circle cx="106" cy="8" r="4" fill="#DC2626"/>
      <text x="115" y="12" font-size="12" fill="#374151">Failed <tspan font-weight="700" fill="#111827">8</tspan></text>

      <circle cx="188" cy="8" r="4" fill="#F59E0B"/>
      <text x="197" y="12" font-size="12" fill="#374151">Blocked <tspan font-weight="700" fill="#111827">3</tspan></text>

      <circle cx="280" cy="8" r="4" fill="#9CA3AF"/>
      <text x="289" y="12" font-size="12" fill="#374151">Untested <tspan font-weight="700" fill="#111827">9</tspan></text>

      <rect x="378" y="-1" width="1" height="16" fill="#E5E7EB"/>

      <text x="394" y="12" font-size="12" fill="#6B7280">153/162 executed · <tspan fill="#111827" font-weight="700">94%</tspan></text>

      <rect x="568" y="-1" width="1" height="16" fill="#E5E7EB"/>

      <text x="584" y="12" font-size="12" fill="#6B7280">Pass rate <tspan fill="#16A34A" font-weight="700">88%</tspan></text>
    </g>

    <!-- Tabs bar -->
    <g transform="translate(0,190)">
      <rect width="1440" height="36" fill="#FFFFFF"/>
      <rect y="35" width="1440" height="1" fill="#E5E7EB"/>

      <text x="22" y="22" font-size="12" fill="#6B7280">Test Cases <tspan fill="#9CA3AF">162</tspan></text>
      <text x="135" y="22" font-size="12" fill="#6B7280">Runs <tspan fill="#9CA3AF">6</tspan></text>
      <text x="200" y="22" font-size="12" fill="#6B7280">Activity <tspan fill="#9CA3AF">47</tspan></text>
      <text x="285" y="22" font-size="12" fill="#6B7280">Issues <tspan fill="#9CA3AF">4</tspan></text>

      <!-- Active: Environments -->
      <text x="360" y="22" font-size="12" font-weight="700" fill="#4F46E5">Environments</text>
      <rect x="358" y="34" width="92" height="2" fill="#6366F1"/>

      <text x="470" y="22" font-size="12" fill="#6B7280">Settings</text>
    </g>
  </g>

  <!-- ============================================================
       COVERAGE MATRIX — x:20..1010, y:250..830
       ============================================================ -->
  <g class="s" transform="translate(20,250)" filter="url(#softShadow)">
    <!-- Card -->
    <rect width="990" height="580" rx="14" fill="#FFFFFF" stroke="#E5E7EB"/>

    <!-- Card header -->
    <text x="20" y="30" font-size="13" font-weight="700" fill="#4338CA" letter-spacing="0.8">▦  COVERAGE MATRIX</text>
    <text x="970" y="30" text-anchor="end" font-size="12" fill="#6B7280">Sprint 42 Regression · 162 TCs × 6 envs</text>

    <!-- Divider under header -->
    <rect x="0" y="44" width="990" height="1" fill="#F1F5F9"/>

    <!-- OS group headers -->
    <g transform="translate(20,56)">
      <rect x="0" y="0" width="300" height="24" fill="#F9FAFB" rx="4"/>
      <text x="150" y="16" text-anchor="middle" font-size="11" font-weight="700" fill="#475569" letter-spacing="1">TEST CASE</text>

      <rect x="302" y="0" width="220" height="24" fill="#F9FAFB" rx="4"/>
      <text x="412" y="16" text-anchor="middle" font-size="11" font-weight="700" fill="#0F172A" letter-spacing="1">macOS</text>

      <rect x="524" y="0" width="330" height="24" fill="#F9FAFB" rx="4"/>
      <text x="689" y="16" text-anchor="middle" font-size="11" font-weight="700" fill="#0F172A" letter-spacing="1">Windows</text>

      <rect x="856" y="0" width="110" height="24" fill="#F9FAFB" rx="4"/>
      <text x="911" y="16" text-anchor="middle" font-size="11" font-weight="700" fill="#0F172A" letter-spacing="1">iOS</text>
    </g>

    <!-- Env column headers -->
    <g transform="translate(20,82)">
      <rect x="0" y="0" width="300" height="28" fill="#FFFFFF"/>
      <text x="12" y="18" font-size="11" fill="#9CA3AF">162 test cases · P0/P1/P2</text>

      <!-- 6 columns -->
      <g font-size="10" font-weight="600" fill="#374151">
        <rect x="302" y="0" width="109" height="28" fill="#FFFFFF"/>
        <text x="356" y="12" text-anchor="middle">Chrome</text>
        <text x="356" y="23" text-anchor="middle" fill="#9CA3AF">124</text>

        <rect x="413" y="0" width="109" height="28" fill="#FFFFFF"/>
        <text x="467" y="12" text-anchor="middle">Safari</text>
        <text x="467" y="23" text-anchor="middle" fill="#9CA3AF">17</text>

        <rect x="524" y="0" width="109" height="28" fill="#FFFFFF"/>
        <text x="578" y="12" text-anchor="middle">Chrome</text>
        <text x="578" y="23" text-anchor="middle" fill="#9CA3AF">124</text>

        <rect x="635" y="0" width="109" height="28" fill="#FFFFFF"/>
        <text x="689" y="12" text-anchor="middle">Edge</text>
        <text x="689" y="23" text-anchor="middle" fill="#9CA3AF">124</text>

        <rect x="746" y="0" width="108" height="28" fill="#FFFFFF"/>
        <text x="800" y="12" text-anchor="middle">Firefox</text>
        <text x="800" y="23" text-anchor="middle" fill="#9CA3AF">125</text>

        <rect x="856" y="0" width="110" height="28" fill="#FFFFFF"/>
        <text x="911" y="12" text-anchor="middle">Safari</text>
        <text x="911" y="23" text-anchor="middle" fill="#9CA3AF">iPhone 15</text>
      </g>
    </g>

    <!-- ===== Heatmap cells (HEATMAP_COLORS from src/lib/environments.ts) =====
         perfect #dcfce7/#14532d  pass #86efac/#14532d  mixed #fde68a/#78350f
         warn #fca5a5/#7f1d1d     fail #ef4444/#fff     critical #991b1b/#fff
         untested #fafafa/#9ca3af
    -->

    <!-- Row 1 — CHK-001 P0 -->
    <g transform="translate(20,114)">
      <text x="12" y="22" class="m" font-size="11" font-weight="700" fill="#1E293B">CHK-001</text>
      <rect x="68" y="14" width="20" height="16" rx="3" fill="#FEE2E2"/>
      <text x="78" y="26" text-anchor="middle" font-size="9" font-weight="800" fill="#B91C1C">P0</text>
      <text x="94" y="30" font-size="12" fill="#374151">Guest checkout — credit card</text>

      <rect x="302" y="4" width="107" height="42" rx="4" fill="#DCFCE7"/>
      <text x="356" y="30" text-anchor="middle" font-size="13" font-weight="700" fill="#14532D">6/6</text>
      <rect x="413" y="4" width="107" height="42" rx="4" fill="#DCFCE7"/>
      <text x="467" y="30" text-anchor="middle" font-size="13" font-weight="700" fill="#14532D">6/6</text>
      <rect x="524" y="4" width="107" height="42" rx="4" fill="#DCFCE7"/>
      <text x="578" y="30" text-anchor="middle" font-size="13" font-weight="700" fill="#14532D">6/6</text>
      <rect x="635" y="4" width="107" height="42" rx="4" fill="#86EFAC"/>
      <text x="689" y="30" text-anchor="middle" font-size="13" font-weight="700" fill="#14532D">5/6</text>
      <rect x="746" y="4" width="106" height="42" rx="4" fill="#FDE68A"/>
      <text x="800" y="30" text-anchor="middle" font-size="13" font-weight="700" fill="#78350F">4/6</text>
      <rect x="856" y="4" width="108" height="42" rx="4" fill="#86EFAC"/>
      <text x="911" y="30" text-anchor="middle" font-size="13" font-weight="700" fill="#14532D">5/6</text>
    </g>

    <!-- Row 2 — CHK-002 P0 -->
    <g transform="translate(20,166)">
      <rect x="-20" y="0" width="990" height="50" fill="#F9FAFB" fill-opacity="0.6"/>
      <text x="12" y="22" class="m" font-size="11" font-weight="700" fill="#1E293B">CHK-002</text>
      <rect x="68" y="14" width="20" height="16" rx="3" fill="#FEE2E2"/>
      <text x="78" y="26" text-anchor="middle" font-size="9" font-weight="800" fill="#B91C1C">P0</text>
      <text x="94" y="30" font-size="12" fill="#374151">Registered user — one-click buy</text>

      <rect x="302" y="4" width="107" height="42" rx="4" fill="#DCFCE7"/>
      <text x="356" y="30" text-anchor="middle" font-size="13" font-weight="700" fill="#14532D">6/6</text>
      <rect x="413" y="4" width="107" height="42" rx="4" fill="#DCFCE7"/>
      <text x="467" y="30" text-anchor="middle" font-size="13" font-weight="700" fill="#14532D">6/6</text>
      <rect x="524" y="4" width="107" height="42" rx="4" fill="#DCFCE7"/>
      <text x="578" y="30" text-anchor="middle" font-size="13" font-weight="700" fill="#14532D">6/6</text>
      <rect x="635" y="4" width="107" height="42" rx="4" fill="#DCFCE7"/>
      <text x="689" y="30" text-anchor="middle" font-size="13" font-weight="700" fill="#14532D">6/6</text>
      <rect x="746" y="4" width="106" height="42" rx="4" fill="#FCA5A5"/>
      <text x="800" y="30" text-anchor="middle" font-size="13" font-weight="700" fill="#7F1D1D">3/6</text>
      <rect x="856" y="4" width="108" height="42" rx="4" fill="#86EFAC"/>
      <text x="911" y="30" text-anchor="middle" font-size="13" font-weight="700" fill="#14532D">5/6</text>
    </g>

    <!-- Row 3 — CHK-003 P1 -->
    <g transform="translate(20,218)">
      <text x="12" y="22" class="m" font-size="11" font-weight="700" fill="#1E293B">CHK-003</text>
      <rect x="68" y="14" width="20" height="16" rx="3" fill="#FEF3C7"/>
      <text x="78" y="26" text-anchor="middle" font-size="9" font-weight="800" fill="#92400E">P1</text>
      <text x="94" y="30" font-size="12" fill="#374151">Apply promo code at checkout</text>

      <rect x="302" y="4" width="107" height="42" rx="4" fill="#86EFAC"/>
      <text x="356" y="30" text-anchor="middle" font-size="13" font-weight="700" fill="#14532D">5/6</text>
      <rect x="413" y="4" width="107" height="42" rx="4" fill="#FDE68A"/>
      <text x="467" y="30" text-anchor="middle" font-size="13" font-weight="700" fill="#78350F">4/6</text>
      <rect x="524" y="4" width="107" height="42" rx="4" fill="#86EFAC"/>
      <text x="578" y="30" text-anchor="middle" font-size="13" font-weight="700" fill="#14532D">5/6</text>
      <rect x="635" y="4" width="107" height="42" rx="4" fill="#FDE68A"/>
      <text x="689" y="30" text-anchor="middle" font-size="13" font-weight="700" fill="#78350F">4/6</text>
      <rect x="746" y="4" width="106" height="42" rx="4" fill="#EF4444"/>
      <text x="800" y="30" text-anchor="middle" font-size="13" font-weight="700" fill="#FFFFFF">2/6</text>
      <rect x="856" y="4" width="108" height="42" rx="4" fill="#FCA5A5"/>
      <text x="911" y="30" text-anchor="middle" font-size="13" font-weight="700" fill="#7F1D1D">3/6</text>
    </g>

    <!-- Row 4 — CHK-004 P1 -->
    <g transform="translate(20,270)">
      <rect x="-20" y="0" width="990" height="50" fill="#F9FAFB" fill-opacity="0.6"/>
      <text x="12" y="22" class="m" font-size="11" font-weight="700" fill="#1E293B">CHK-004</text>
      <rect x="68" y="14" width="20" height="16" rx="3" fill="#FEF3C7"/>
      <text x="78" y="26" text-anchor="middle" font-size="9" font-weight="800" fill="#92400E">P1</text>
      <text x="94" y="30" font-size="12" fill="#374151">Address validation — international</text>

      <rect x="302" y="4" width="107" height="42" rx="4" fill="#DCFCE7"/>
      <text x="356" y="30" text-anchor="middle" font-size="13" font-weight="700" fill="#14532D">6/6</text>
      <rect x="413" y="4" width="107" height="42" rx="4" fill="#DCFCE7"/>
      <text x="467" y="30" text-anchor="middle" font-size="13" font-weight="700" fill="#14532D">6/6</text>
      <rect x="524" y="4" width="107" height="42" rx="4" fill="#DCFCE7"/>
      <text x="578" y="30" text-anchor="middle" font-size="13" font-weight="700" fill="#14532D">6/6</text>
      <rect x="635" y="4" width="107" height="42" rx="4" fill="#86EFAC"/>
      <text x="689" y="30" text-anchor="middle" font-size="13" font-weight="700" fill="#14532D">5/6</text>
      <rect x="746" y="4" width="106" height="42" rx="4" fill="#FCA5A5"/>
      <text x="800" y="30" text-anchor="middle" font-size="13" font-weight="700" fill="#7F1D1D">3/6</text>
      <rect x="856" y="4" width="108" height="42" rx="4" fill="#FDE68A"/>
      <text x="911" y="30" text-anchor="middle" font-size="13" font-weight="700" fill="#78350F">4/6</text>
    </g>

    <!-- Row 5 — CHK-005 P1 (Apple Pay — CRITICAL ROW) -->
    <g transform="translate(20,322)">
      <rect x="-20" y="0" width="990" height="50" fill="#FEF2F2"/>
      <text x="12" y="22" class="m" font-size="11" font-weight="800" fill="#991B1B">CHK-005</text>
      <rect x="68" y="14" width="20" height="16" rx="3" fill="#FEF3C7"/>
      <text x="78" y="26" text-anchor="middle" font-size="9" font-weight="800" fill="#92400E">P1</text>
      <text x="94" y="30" font-size="12" font-weight="600" fill="#991B1B">Apple Pay express checkout</text>

      <rect x="302" y="4" width="107" height="42" rx="4" fill="#FDE68A"/>
      <text x="356" y="30" text-anchor="middle" font-size="13" font-weight="700" fill="#78350F">4/6</text>
      <rect x="413" y="4" width="107" height="42" rx="4" fill="#FCA5A5"/>
      <text x="467" y="30" text-anchor="middle" font-size="13" font-weight="700" fill="#7F1D1D">3/6</text>
      <rect x="524" y="4" width="107" height="42" rx="4" fill="#FDE68A"/>
      <text x="578" y="30" text-anchor="middle" font-size="13" font-weight="700" fill="#78350F">4/6</text>
      <rect x="635" y="4" width="107" height="42" rx="4" fill="#FCA5A5"/>
      <text x="689" y="30" text-anchor="middle" font-size="13" font-weight="700" fill="#7F1D1D">3/6</text>
      <rect x="746" y="4" width="106" height="42" rx="4" fill="#EF4444"/>
      <text x="800" y="30" text-anchor="middle" font-size="13" font-weight="700" fill="#FFFFFF">1/6</text>

      <!-- Critical cell with glow -->
      <circle cx="911" cy="25" r="42" fill="url(#indigoGlow)" opacity="0.6"/>
      <rect x="856" y="4" width="108" height="42" rx="4" fill="#991B1B" stroke="#7F1D1D" stroke-width="1"/>
      <text x="911" y="30" text-anchor="middle" font-size="13" font-weight="800" fill="#FFFFFF">0/4</text>
    </g>

    <!-- Row 6 — CHK-006 P2 -->
    <g transform="translate(20,374)">
      <text x="12" y="22" class="m" font-size="11" font-weight="700" fill="#1E293B">CHK-006</text>
      <rect x="68" y="14" width="20" height="16" rx="3" fill="#F1F5F9"/>
      <text x="78" y="26" text-anchor="middle" font-size="9" font-weight="800" fill="#64748B">P2</text>
      <text x="94" y="30" font-size="12" fill="#374151">Abandoned cart recovery email</text>

      <rect x="302" y="4" width="107" height="42" rx="4" fill="#DCFCE7"/>
      <text x="356" y="30" text-anchor="middle" font-size="13" font-weight="700" fill="#14532D">6/6</text>
      <rect x="413" y="4" width="107" height="42" rx="4" fill="#DCFCE7"/>
      <text x="467" y="30" text-anchor="middle" font-size="13" font-weight="700" fill="#14532D">6/6</text>
      <rect x="524" y="4" width="107" height="42" rx="4" fill="#86EFAC"/>
      <text x="578" y="30" text-anchor="middle" font-size="13" font-weight="700" fill="#14532D">5/6</text>
      <rect x="635" y="4" width="107" height="42" rx="4" fill="#FAFAFA" stroke="#E5E7EB" stroke-dasharray="3 3"/>
      <text x="689" y="30" text-anchor="middle" font-size="13" font-weight="600" fill="#9CA3AF">—</text>
      <rect x="746" y="4" width="106" height="42" rx="4" fill="#FCA5A5"/>
      <text x="800" y="30" text-anchor="middle" font-size="13" font-weight="700" fill="#7F1D1D">3/6</text>
      <rect x="856" y="4" width="108" height="42" rx="4" fill="#FAFAFA" stroke="#E5E7EB" stroke-dasharray="3 3"/>
      <text x="911" y="30" text-anchor="middle" font-size="13" font-weight="600" fill="#9CA3AF">—</text>
    </g>

    <!-- Row 7 — CHK-007 P1 -->
    <g transform="translate(20,426)">
      <rect x="-20" y="0" width="990" height="50" fill="#F9FAFB" fill-opacity="0.6"/>
      <text x="12" y="22" class="m" font-size="11" font-weight="700" fill="#1E293B">CHK-007</text>
      <rect x="68" y="14" width="20" height="16" rx="3" fill="#FEF3C7"/>
      <text x="78" y="26" text-anchor="middle" font-size="9" font-weight="800" fill="#92400E">P1</text>
      <text x="94" y="30" font-size="12" fill="#374151">Tax calculation — EU VAT</text>

      <rect x="302" y="4" width="107" height="42" rx="4" fill="#DCFCE7"/>
      <text x="356" y="30" text-anchor="middle" font-size="13" font-weight="700" fill="#14532D">6/6</text>
      <rect x="413" y="4" width="107" height="42" rx="4" fill="#86EFAC"/>
      <text x="467" y="30" text-anchor="middle" font-size="13" font-weight="700" fill="#14532D">5/6</text>
      <rect x="524" y="4" width="107" height="42" rx="4" fill="#DCFCE7"/>
      <text x="578" y="30" text-anchor="middle" font-size="13" font-weight="700" fill="#14532D">6/6</text>
      <rect x="635" y="4" width="107" height="42" rx="4" fill="#FDE68A"/>
      <text x="689" y="30" text-anchor="middle" font-size="13" font-weight="700" fill="#78350F">4/6</text>
      <rect x="746" y="4" width="106" height="42" rx="4" fill="#FCA5A5"/>
      <text x="800" y="30" text-anchor="middle" font-size="13" font-weight="700" fill="#7F1D1D">3/6</text>
      <rect x="856" y="4" width="108" height="42" rx="4" fill="#FDE68A"/>
      <text x="911" y="30" text-anchor="middle" font-size="13" font-weight="700" fill="#78350F">4/6</text>
    </g>

    <!-- Row 8 — CHK-008 P2 -->
    <g transform="translate(20,478)">
      <text x="12" y="22" class="m" font-size="11" font-weight="700" fill="#1E293B">CHK-008</text>
      <rect x="68" y="14" width="20" height="16" rx="3" fill="#F1F5F9"/>
      <text x="78" y="26" text-anchor="middle" font-size="9" font-weight="800" fill="#64748B">P2</text>
      <text x="94" y="30" font-size="12" fill="#374151">Order confirmation — receipt PDF</text>

      <rect x="302" y="4" width="107" height="42" rx="4" fill="#DCFCE7"/>
      <text x="356" y="30" text-anchor="middle" font-size="13" font-weight="700" fill="#14532D">6/6</text>
      <rect x="413" y="4" width="107" height="42" rx="4" fill="#DCFCE7"/>
      <text x="467" y="30" text-anchor="middle" font-size="13" font-weight="700" fill="#14532D">6/6</text>
      <rect x="524" y="4" width="107" height="42" rx="4" fill="#86EFAC"/>
      <text x="578" y="30" text-anchor="middle" font-size="13" font-weight="700" fill="#14532D">5/6</text>
      <rect x="635" y="4" width="107" height="42" rx="4" fill="#FAFAFA" stroke="#E5E7EB" stroke-dasharray="3 3"/>
      <text x="689" y="30" text-anchor="middle" font-size="13" font-weight="600" fill="#9CA3AF">—</text>
      <rect x="746" y="4" width="106" height="42" rx="4" fill="#EF4444"/>
      <text x="800" y="30" text-anchor="middle" font-size="13" font-weight="700" fill="#FFFFFF">2/6</text>
      <rect x="856" y="4" width="108" height="42" rx="4" fill="#FDE68A"/>
      <text x="911" y="30" text-anchor="middle" font-size="13" font-weight="700" fill="#78350F">4/6</text>
    </g>

    <!-- Summary row -->
    <g transform="translate(20,534)">
      <rect x="-20" y="0" width="1010" height="28" fill="#F8FAFC"/>
      <rect x="-20" y="0" width="1010" height="1" fill="#E5E7EB"/>
      <text x="12" y="18" font-size="11" font-weight="700" fill="#475569" letter-spacing="1">Σ  ENV PASS RATE</text>

      <rect x="302" y="4" width="107" height="20" rx="3" fill="#DCFCE7"/>
      <text x="356" y="18" text-anchor="middle" font-size="11" font-weight="700" fill="#14532D">98%</text>
      <rect x="413" y="4" width="107" height="20" rx="3" fill="#86EFAC"/>
      <text x="467" y="18" text-anchor="middle" font-size="11" font-weight="700" fill="#14532D">92%</text>
      <rect x="524" y="4" width="107" height="20" rx="3" fill="#DCFCE7"/>
      <text x="578" y="18" text-anchor="middle" font-size="11" font-weight="700" fill="#14532D">94%</text>
      <rect x="635" y="4" width="107" height="20" rx="3" fill="#86EFAC"/>
      <text x="689" y="18" text-anchor="middle" font-size="11" font-weight="700" fill="#14532D">81%</text>
      <rect x="746" y="4" width="106" height="20" rx="3" fill="#FCA5A5"/>
      <text x="800" y="18" text-anchor="middle" font-size="11" font-weight="700" fill="#7F1D1D">47%</text>
      <rect x="856" y="4" width="108" height="20" rx="3" fill="#FDE68A"/>
      <text x="911" y="18" text-anchor="middle" font-size="11" font-weight="700" fill="#78350F">63%</text>
    </g>
  </g>

  <!-- ============================================================
       AI ENVIRONMENT INSIGHTS PANEL — x:1030..1420, y:250..830
       ============================================================ -->
  <g class="s" transform="translate(1030,250)" filter="url(#softShadow)">
    <!-- Panel card -->
    <rect width="390" height="580" rx="14" fill="#FFFFFF" stroke="#EDE9FE"/>
    <!-- Subtle AI gradient band on top -->
    <rect width="390" height="88" rx="14" fill="url(#aiHeadGrad)"/>

    <!-- Header -->
    <g transform="translate(16,18)">
      <!-- Sparkle -->
      <path d="M6 0 L7.5 4.5 L12 6 L7.5 7.5 L6 12 L4.5 7.5 L0 6 L4.5 4.5 Z" fill="#8B5CF6" transform="translate(0,2)"/>

      <text x="18" y="12" font-size="11" font-weight="800" fill="#6D28D9" letter-spacing="1.5">AI-GENERATED</text>
      <rect x="118" y="0" width="56" height="16" rx="4" fill="#DCFCE7"/>
      <text x="146" y="12" text-anchor="middle" font-size="10" font-weight="800" fill="#14532D">92%</text>

      <text x="182" y="12" font-size="10" fill="#6B7280">Confidence</text>

      <text x="0" y="32" font-size="11" fill="#6B7280">Updated 4m ago</text>
      <text x="0" y="50" font-size="11" fill="#6B7280">
        <tspan fill="#6D28D9" font-weight="700">1 credit</tspan> used · 29 left · Starter
      </text>
    </g>

    <!-- Divider -->
    <rect x="16" y="88" width="358" height="1" fill="#E5E7EB"/>

    <!-- Card 1 — CRITICAL -->
    <g transform="translate(16,104)">
      <rect width="358" height="164" rx="10" fill="#FEF2F2" stroke="#FECACA"/>
      <!-- Header -->
      <g transform="translate(14,14)">
        <rect width="72" height="20" rx="4" fill="#FEE2E2" stroke="#FCA5A5"/>
        <text x="36" y="14" text-anchor="middle" font-size="10" font-weight="800" fill="#991B1B" letter-spacing="1">⚠ CRITICAL</text>

        <rect x="250" y="0" width="80" height="20" rx="4" fill="#F5F3FF" stroke="#DDD6FE"/>
        <text x="290" y="14" text-anchor="middle" font-size="10" font-weight="700" fill="#6D28D9">1 credit</text>
      </g>
      <!-- Title -->
      <text x="14" y="60" font-size="14" font-weight="700" fill="#0F172A">Apple Pay broken on iOS Safari</text>
      <!-- Body -->
      <text x="14" y="84" font-size="12" fill="#374151">CHK-005 failed 4/4 runs on iPhone 15.</text>
      <text x="14" y="102" font-size="12" fill="#374151">No passes recorded in last 2 sprints.</text>
      <!-- Actions -->
      <g transform="translate(14,118)">
        <rect width="108" height="28" rx="6" fill="#F5F3FF" stroke="#DDD6FE"/>
        <text x="54" y="18" text-anchor="middle" font-size="11" font-weight="700" fill="#6D28D9">Highlight env</text>

        <rect x="118" width="96" height="28" rx="6" fill="#FEE2E2" stroke="#FCA5A5"/>
        <text x="166" y="18" text-anchor="middle" font-size="11" font-weight="700" fill="#991B1B">Create issue</text>
      </g>
    </g>

    <!-- Card 2 — GAP -->
    <g transform="translate(16,280)">
      <rect width="358" height="140" rx="10" fill="#FFFBEB" stroke="#FDE68A"/>
      <g transform="translate(14,14)">
        <rect width="52" height="20" rx="4" fill="#FEF3C7" stroke="#FCD34D"/>
        <text x="26" y="14" text-anchor="middle" font-size="10" font-weight="800" fill="#92400E" letter-spacing="1">⚠ GAP</text>
      </g>
      <text x="14" y="60" font-size="14" font-weight="700" fill="#0F172A">Firefox 125 under-tested</text>
      <text x="14" y="84" font-size="12" fill="#374151">47% coverage on Windows Firefox —</text>
      <text x="14" y="102" font-size="12" fill="#374151">41% below macOS Chrome baseline.</text>
      <g transform="translate(14,114)">
        <rect width="92" height="22" rx="6" fill="#F5F3FF" stroke="#DDD6FE"/>
        <text x="46" y="15" text-anchor="middle" font-size="11" font-weight="700" fill="#6D28D9">Assign run</text>

        <rect x="102" width="108" height="22" rx="6" fill="#F5F3FF" stroke="#DDD6FE"/>
        <text x="156" y="15" text-anchor="middle" font-size="11" font-weight="700" fill="#6D28D9">Highlight env</text>
      </g>
    </g>

    <!-- Card 3 — BASELINE -->
    <g transform="translate(16,432)">
      <rect width="358" height="96" rx="10" fill="#F0FDF4" stroke="#BBF7D0"/>
      <g transform="translate(14,14)">
        <rect width="76" height="20" rx="4" fill="#DCFCE7" stroke="#86EFAC"/>
        <text x="38" y="14" text-anchor="middle" font-size="10" font-weight="800" fill="#14532D" letter-spacing="1">✓ BASELINE</text>
      </g>
      <text x="14" y="60" font-size="14" font-weight="700" fill="#0F172A">macOS Chrome production-ready</text>
      <text x="14" y="82" font-size="12" fill="#374151">6/6 critical TCs at 100% pass rate.</text>
    </g>

    <!-- Footer hint -->
    <text x="16" y="568" font-size="10" fill="#9CA3AF">✦ Regenerate in 24h · Claude Haiku</text>
  </g>

  <!-- ============================================================
       FLOATING AI RUN SUMMARY — bottom-right, rotated 6deg
       (dark indigo header kept as brand accent against white body)
       ============================================================ -->
  <g transform="translate(770,540) rotate(6)">
    <!-- Ambient glow -->
    <ellipse cx="300" cy="170" rx="340" ry="200" fill="url(#indigoGlow)" opacity="0.7"/>

    <!-- Card -->
    <g filter="url(#cardShadow)">
      <rect x="0" y="0" width="600" height="320" rx="16" fill="#FFFFFF" stroke="#C7D2FE"/>

      <!-- Header (dark indigo — brand AI accent) -->
      <path d="M0 16 Q0 0 16 0 L584 0 Q600 0 600 16 L600 56 L0 56 Z" fill="url(#runGrad)"/>

      <!-- Sparkle -->
      <path d="M22 18 L24 26 L32 28 L24 30 L22 38 L20 30 L12 28 L20 26 Z" fill="#C4B5FD"/>
      <text x="40" y="33" font-size="14" font-weight="800" fill="#FFFFFF">AI Run Summary</text>
      <text x="560" y="33" font-size="13" fill="#C7D2FE">×</text>

      <!-- Body -->
      <text x="20" y="84" font-size="13" font-weight="700" fill="#0F172A">Sprint 42 — Nightly #128</text>

      <!-- Risk chip -->
      <rect x="20" y="98" width="100" height="26" rx="6" fill="#DCFCE7" stroke="#86EFAC"/>
      <circle cx="34" cy="111" r="4" fill="#16A34A"/>
      <text x="45" y="115" font-size="11" font-weight="800" fill="#14532D" letter-spacing="1">LOW RISK</text>

      <text x="140" y="115" font-size="11" fill="#6B7280">1 credit used</text>

      <!-- Key metrics 3x2 grid -->
      <g transform="translate(20,138)">
        <!-- Row 1 -->
        <g>
          <rect width="180" height="62" rx="8" fill="#F8FAFC" stroke="#E5E7EB"/>
          <text x="14" y="26" font-size="10" font-weight="700" fill="#64748B" letter-spacing="1">TOTAL</text>
          <text x="14" y="50" font-size="22" font-weight="800" fill="#0F172A">162</text>

          <rect x="188" width="180" height="62" rx="8" fill="#F8FAFC" stroke="#E5E7EB"/>
          <text x="202" y="26" font-size="10" font-weight="700" fill="#64748B" letter-spacing="1">PASSED</text>
          <text x="202" y="50" font-size="22" font-weight="800" fill="#16A34A">142</text>

          <rect x="376" width="180" height="62" rx="8" fill="#F8FAFC" stroke="#E5E7EB"/>
          <text x="390" y="26" font-size="10" font-weight="700" fill="#64748B" letter-spacing="1">FAILED</text>
          <text x="390" y="50" font-size="22" font-weight="800" fill="#DC2626">8</text>
        </g>
        <!-- Row 2 -->
        <g transform="translate(0,72)">
          <rect width="180" height="62" rx="8" fill="#F8FAFC" stroke="#E5E7EB"/>
          <text x="14" y="26" font-size="10" font-weight="700" fill="#64748B" letter-spacing="1">BLOCKED</text>
          <text x="14" y="50" font-size="22" font-weight="800" fill="#D97706">3</text>

          <rect x="188" width="180" height="62" rx="8" fill="#F8FAFC" stroke="#E5E7EB"/>
          <text x="202" y="26" font-size="10" font-weight="700" fill="#64748B" letter-spacing="1">PASS RATE</text>
          <text x="202" y="50" font-size="22" font-weight="800" fill="#CA8A04">88%</text>

          <rect x="376" width="180" height="62" rx="8" fill="#F8FAFC" stroke="#E5E7EB"/>
          <text x="390" y="26" font-size="10" font-weight="700" fill="#64748B" letter-spacing="1">SKIPPED</text>
          <text x="390" y="50" font-size="22" font-weight="800" fill="#64748B">9</text>
        </g>
      </g>

      <!-- Executive summary peek -->
      <text x="20" y="296" font-size="11" fill="#475569">
        Run is healthy overall — 88% pass rate with failures isolated to Apple Pay on iOS…
      </text>
      <!-- Fade gradient at bottom to suggest "more below" -->
      <rect x="0" y="300" width="600" height="20" fill="#FFFFFF" fill-opacity="0.85"/>
    </g>
  </g>
</svg>
